<svg width="868" height="750" viewBox="0 0 868 750" fill="none" xmlns="http://www.w3.org/2000/svg">
<rect width="866" height="749" transform="translate(1 1)" fill="white"/>
<path d="M434 0L867.013 750H0.987305L434 0Z" fill="url(#paint0_angular_101_10)"/>
<path d="M341.7 213.8H343.7V211.8H341.7V213.8ZM341.7 272H339.7V274H341.7V272ZM357.4 272V274H359.4V272H357.4ZM357.4 213.8V211.8H355.4V213.8H357.4ZM378.8 213.8V215.8H380.8V213.8H378.8ZM378.8 200.6H380.8V198.6H378.8V200.6ZM320.3 200.6V198.6H318.3V200.6H320.3ZM320.3 213.8H318.3V215.8H320.3V213.8ZM339.7 213.8V272H343.7V213.8H339.7ZM341.7 274H357.4V270H341.7V274ZM359.4 272V213.8H355.4V272H359.4ZM357.4 215.8H378.8V211.8H357.4V215.8ZM380.8 213.8V200.6H376.8V213.8H380.8ZM378.8 198.6H320.3V202.6H378.8V198.6ZM318.3 200.6V213.8H322.3V200.6H318.3ZM320.3 215.8H341.7V211.8H320.3V215.8ZM387.033 200.6V198.6H385.033V200.6H387.033ZM387.033 272H385.033V274H387.033V272ZM402.733 272V274H404.733V272H402.733ZM402.733 241.2V239.2H400.733V241.2H402.733ZM431.633 241.2H433.633V239.2H431.633V241.2ZM431.633 272H429.633V274H431.633V272ZM447.333 272V274H449.333V272H447.333ZM447.333 200.6H449.333V198.6H447.333V200.6ZM431.633 200.6V198.6H429.633V200.6H431.633ZM431.633 228V230H433.633V228H431.633ZM402.733 228H400.733V230H402.733V228ZM402.733 200.6H404.733V198.6H402.733V200.6ZM385.033 200.6V272H389.033V200.6H385.033ZM387.033 274H402.733V270H387.033V274ZM404.733 272V241.2H400.733V272H404.733ZM402.733 243.2H431.633V239.2H402.733V243.2ZM429.633 241.2V272H433.633V241.2H429.633ZM431.633 274H447.333V270H431.633V274ZM449.333 272V200.6H445.333V272H449.333ZM447.333 198.6H431.633V202.6H447.333V198.6ZM429.633 200.6V228H433.633V200.6H429.633ZM431.633 226H402.733V230H431.633V226ZM404.733 228V200.6H400.733V228H404.733ZM402.733 198.6H387.033V202.6H402.733V198.6ZM461.154 200.6V198.6H459.154V200.6H461.154ZM461.154 272H459.154V274H461.154V272ZM476.854 272V274H478.854V272H476.854ZM476.854 200.6H478.854V198.6H476.854V200.6ZM459.154 200.6V272H463.154V200.6H459.154ZM461.154 274H476.854V270H461.154V274ZM478.854 272V200.6H474.854V272H478.854ZM476.854 198.6H461.154V202.6H476.854V198.6ZM501.346 248.3H503.346V246.3H501.346V248.3ZM486.146 248.3V246.3H484.176L484.146 248.27L486.146 248.3ZM488.546 259.7L486.772 260.624L486.772 260.624L488.546 259.7ZM495.246 267.6L494.058 269.209L494.067 269.216L494.076 269.222L495.246 267.6ZM505.046 272.1L505.564 270.168L505.552 270.165L505.539 270.162L505.046 272.1ZM529.346 271.9L528.765 269.986L528.755 269.989L529.346 271.9ZM538.646 267.2L539.906 268.754L539.91 268.75L538.646 267.2ZM544.346 259.9L542.524 259.076L542.524 259.076L544.346 259.9ZM543.646 241L541.962 242.079L541.979 242.105L541.995 242.129L543.646 241ZM537.646 234.8L538.744 233.129L538.744 233.129L537.646 234.8ZM530.546 231.5L529.946 233.408L529.978 233.418L530.011 233.427L530.546 231.5ZM525.046 230L524.554 231.939L524.604 231.951L524.654 231.961L525.046 230ZM514.146 227.2L513.628 229.132L513.639 229.135L514.146 227.2ZM507.646 225L506.783 226.804L506.798 226.811L506.813 226.818L507.646 225ZM504.546 222.6L502.843 223.648L502.843 223.648L504.546 222.6ZM504.746 215.4L503.082 214.291L503.082 214.291L504.746 215.4ZM507.246 212.9L506.186 211.204L506.161 211.22L506.137 211.236L507.246 212.9ZM519.846 211.6L519.438 213.558L519.446 213.56L519.454 213.561L519.846 211.6ZM524.246 213.3L523.178 214.991L523.178 214.991L524.246 213.3ZM527.246 216.6L525.474 217.528L525.491 217.56L525.51 217.592L527.246 216.6ZM528.646 221.9L526.65 222.025L526.767 223.9H528.646V221.9ZM543.846 221.9V223.9H545.846V221.9H543.846ZM541.446 211.4L539.674 212.327L539.686 212.351L539.7 212.375L541.446 211.4ZM535.146 204.2L533.999 205.838L533.999 205.838L535.146 204.2ZM525.946 200.2L525.452 202.138L525.474 202.144L525.496 202.149L525.946 200.2ZM505.646 200.2L505.123 198.27L505.123 198.27L505.646 200.2ZM497.046 204.2L495.888 202.57L495.888 202.57L497.046 204.2ZM490.846 211L489.12 209.99L489.116 209.996L489.112 210.003L490.846 211ZM490.346 228.9L488.568 229.815L488.583 229.845L488.6 229.876L490.346 228.9ZM495.246 234.6L494.029 236.187L494.029 236.187L495.246 234.6ZM502.046 238.4L501.312 240.26L501.333 240.269L501.355 240.277L502.046 238.4ZM509.846 240.8L510.389 238.875L510.36 238.867L510.331 238.86L509.846 240.8ZM517.546 242.8L518.007 240.854L518.007 240.854L517.546 242.8ZM524.346 244.9L525.089 243.043L525.089 243.043L524.346 244.9ZM529.146 247.9L527.732 249.314L527.751 249.333L527.771 249.352L529.146 247.9ZM529.646 257.1L531.19 258.371L531.208 258.35L531.225 258.328L529.646 257.1ZM526.146 259.8L525.286 257.994L525.286 257.994L526.146 259.8ZM521.646 261.2L521.894 263.185L521.935 263.179L521.975 263.173L521.646 261.2ZM511.146 260.8L510.614 262.728L510.645 262.737L510.677 262.744L511.146 260.8ZM506.046 258.5L504.834 260.091L504.876 260.123L504.919 260.152L506.046 258.5ZM502.646 254.4L504.421 253.477L504.421 253.477L502.646 254.4ZM501.346 246.3H486.146V250.3H501.346V246.3ZM484.146 248.27C484.076 252.929 484.922 257.071 486.772 260.624L490.32 258.776C488.837 255.929 488.083 252.471 488.146 248.33L484.146 248.27ZM486.772 260.624C488.574 264.084 491.004 266.955 494.058 269.209L496.434 265.991C493.888 264.112 491.851 261.716 490.32 258.776L486.772 260.624ZM494.076 269.222C497.161 271.446 500.66 273.047 504.553 274.038L505.539 270.162C502.099 269.286 499.065 267.887 496.416 265.978L494.076 269.222ZM504.529 274.032C508.434 275.078 512.441 275.6 516.546 275.6V271.6C512.784 271.6 509.125 271.122 505.564 270.168L504.529 274.032ZM516.546 275.6C521.562 275.6 526.035 275.017 529.937 273.811L528.755 269.989C525.323 271.05 521.264 271.6 516.546 271.6V275.6ZM529.927 273.814C533.853 272.622 537.198 270.949 539.906 268.754L537.386 265.646C535.161 267.451 532.306 268.911 528.765 269.986L529.927 273.814ZM539.91 268.75C542.668 266.5 544.766 263.824 546.168 260.724L542.524 259.076C541.393 261.576 539.691 263.766 537.382 265.65L539.91 268.75ZM546.168 260.724C547.559 257.649 548.246 254.333 548.246 250.8H544.246C544.246 253.801 543.666 256.551 542.524 259.076L546.168 260.724ZM548.246 250.8C548.246 246.518 547.318 242.824 545.297 239.871L541.995 242.129C543.441 244.242 544.246 247.082 544.246 250.8H548.246ZM545.33 239.921C543.528 237.11 541.336 234.832 538.744 233.129L536.548 236.471C538.623 237.835 540.431 239.69 541.962 242.079L545.33 239.921ZM538.744 233.129C536.259 231.495 533.704 230.301 531.081 229.573L530.011 233.427C532.188 234.032 534.367 235.038 536.548 236.471L538.744 233.129ZM531.146 229.592C528.789 228.851 526.876 228.326 525.438 228.039L524.654 231.961C525.883 232.207 527.637 232.682 529.946 233.408L531.146 229.592ZM525.538 228.061C521.074 226.929 517.446 225.997 514.653 225.265L513.639 229.135C516.446 229.87 520.085 230.805 524.554 231.939L525.538 228.061ZM514.664 225.268C511.983 224.549 509.936 223.849 508.479 223.182L506.813 226.818C508.557 227.617 510.843 228.385 513.628 229.132L514.664 225.268ZM508.509 223.196C507.115 222.529 506.487 221.938 506.249 221.552L502.843 223.648C503.672 224.995 505.111 226.005 506.783 226.804L508.509 223.196ZM506.249 221.552C505.97 221.098 505.746 220.364 505.746 219.2H501.746C501.746 220.836 502.056 222.369 502.843 223.648L506.249 221.552ZM505.746 219.2C505.746 217.953 506.016 217.101 506.41 216.509L503.082 214.291C502.143 215.699 501.746 217.38 501.746 219.2H505.746ZM506.41 216.509C506.93 215.729 507.575 215.084 508.355 214.564L506.137 211.236C504.917 212.049 503.895 213.071 503.082 214.291L506.41 216.509ZM508.306 214.596C509.168 214.057 510.114 213.677 511.158 213.457L510.334 209.543C508.845 209.856 507.458 210.409 506.186 211.204L508.306 214.596ZM511.158 213.457C512.292 213.218 513.421 213.1 514.546 213.1V209.1C513.138 209.1 511.733 209.248 510.334 209.543L511.158 213.457ZM514.546 213.1C516.367 213.1 517.994 213.257 519.438 213.558L520.254 209.642C518.498 209.276 516.592 209.1 514.546 209.1V213.1ZM519.454 213.561C520.913 213.853 522.144 214.338 523.178 214.991L525.314 211.609C523.815 210.662 522.113 210.014 520.238 209.639L519.454 213.561ZM523.178 214.991C524.131 215.593 524.895 216.422 525.474 217.528L529.018 215.672C528.13 213.978 526.895 212.607 525.314 211.609L523.178 214.991ZM525.51 217.592C526.117 218.655 526.53 220.102 526.65 222.025L530.642 221.775C530.496 219.432 529.975 217.345 528.983 215.608L525.51 217.592ZM528.646 223.9H543.846V219.9H528.646V223.9ZM545.846 221.9C545.846 217.512 544.997 213.658 543.192 210.425L539.7 212.375C541.096 214.876 541.846 218.021 541.846 221.9H545.846ZM543.219 210.473C541.539 207.261 539.227 204.615 536.293 202.562L533.999 205.838C536.399 207.518 538.286 209.672 539.674 212.327L543.219 210.473ZM536.293 202.562C533.397 200.534 530.089 199.104 526.396 198.251L525.496 202.149C528.736 202.896 531.562 204.132 533.999 205.838L536.293 202.562ZM526.44 198.262C522.869 197.352 519.135 196.9 515.246 196.9V200.9C518.823 200.9 522.224 201.315 525.452 202.138L526.44 198.262ZM515.246 196.9C511.863 196.9 508.488 197.358 505.123 198.27L506.169 202.13C509.205 201.308 512.229 200.9 515.246 200.9V196.9ZM505.123 198.27C501.711 199.194 498.626 200.624 495.888 202.57L498.205 205.83C500.533 204.176 503.182 202.94 506.169 202.13L505.123 198.27ZM495.888 202.57C493.119 204.537 490.86 207.017 489.12 209.99L492.572 212.01C494.032 209.517 495.907 207.463 498.205 205.83L495.888 202.57ZM489.112 210.003C487.374 213.027 486.546 216.551 486.546 220.5H490.546C490.546 217.116 491.252 214.307 492.58 211.997L489.112 210.003ZM486.546 220.5C486.546 224.008 487.191 227.137 488.568 229.815L492.125 227.985C491.102 225.996 490.546 223.525 490.546 220.5H486.546ZM488.6 229.876C489.996 232.373 491.806 234.483 494.029 236.187L496.463 233.013C494.686 231.65 493.23 229.961 492.092 227.924L488.6 229.876ZM494.029 236.187C496.188 237.842 498.62 239.198 501.312 240.26L502.78 236.54C500.406 235.602 498.304 234.424 496.463 233.013L494.029 236.187ZM501.355 240.277C503.957 241.235 506.626 242.056 509.361 242.74L510.331 238.86C507.733 238.21 505.202 237.431 502.738 236.523L501.355 240.277ZM509.303 242.725C511.929 243.466 514.523 244.139 517.085 244.746L518.007 240.854C515.502 240.261 512.963 239.601 510.389 238.875L509.303 242.725ZM517.085 244.746C519.542 245.328 521.711 246 523.603 246.757L525.089 243.043C522.981 242.2 520.617 241.472 518.007 240.854L517.085 244.746ZM523.603 246.757C525.417 247.482 526.767 248.35 527.732 249.314L530.56 246.486C529.125 245.05 527.275 243.918 525.089 243.043L523.603 246.757ZM527.771 249.352C528.593 250.131 529.046 251.15 529.046 252.6H533.046C533.046 250.183 532.232 248.069 530.522 246.448L527.771 249.352ZM529.046 252.6C529.046 254.04 528.68 255.085 528.067 255.872L531.225 258.328C532.479 256.715 533.046 254.76 533.046 252.6H529.046ZM528.102 255.829C527.365 256.723 526.437 257.446 525.286 257.994L527.006 261.606C528.655 260.82 530.06 259.743 531.19 258.371L528.102 255.829ZM525.286 257.994C524.062 258.577 522.742 258.99 521.317 259.227L521.975 263.173C523.75 262.877 525.43 262.356 527.006 261.606L525.286 257.994ZM521.398 259.215C519.868 259.407 518.452 259.5 517.146 259.5V263.5C518.64 263.5 520.224 263.393 521.894 263.185L521.398 259.215ZM517.146 259.5C515.231 259.5 513.389 259.284 511.615 258.856L510.677 262.744C512.77 263.249 514.928 263.5 517.146 263.5V259.5ZM511.678 258.872C509.93 258.39 508.436 257.709 507.173 256.848L504.919 260.152C506.59 261.291 508.496 262.144 510.614 262.728L511.678 258.872ZM507.258 256.909C506.108 256.033 505.161 254.9 504.421 253.477L500.872 255.323C501.865 257.233 503.184 258.834 504.834 260.091L507.258 256.909ZM504.421 253.477C503.737 252.164 503.346 250.466 503.346 248.3H499.346C499.346 250.934 499.821 253.303 500.872 255.323L504.421 253.477Z" fill="#0000FF"/>
<path d="M165.4 386.6V384.6H163.4V386.6H165.4ZM165.4 458H163.4V460H165.4V458ZM181.1 458V460H183.1V458H181.1ZM181.1 427.2V425.2H179.1V427.2H181.1ZM210 427.2H212V425.2H210V427.2ZM210 458H208V460H210V458ZM225.7 458V460H227.7V458H225.7ZM225.7 386.6H227.7V384.6H225.7V386.6ZM210 386.6V384.6H208V386.6H210ZM210 414V416H212V414H210ZM181.1 414H179.1V416H181.1V414ZM181.1 386.6H183.1V384.6H181.1V386.6ZM163.4 386.6V458H167.4V386.6H163.4ZM165.4 460H181.1V456H165.4V460ZM183.1 458V427.2H179.1V458H183.1ZM181.1 429.2H210V425.2H181.1V429.2ZM208 427.2V458H212V427.2H208ZM210 460H225.7V456H210V460ZM227.7 458V386.6H223.7V458H227.7ZM225.7 384.6H210V388.6H225.7V384.6ZM208 386.6V414H212V386.6H208ZM210 412H181.1V416H210V412ZM183.1 414V386.6H179.1V414H183.1ZM181.1 384.6H165.4V388.6H181.1V384.6ZM239.521 386.6V384.6H237.521V386.6H239.521ZM239.521 458H237.521V460H239.521V458ZM293.721 458V460H295.721V458H293.721ZM293.721 444.8H295.721V442.8H293.721V444.8ZM255.221 444.8H253.221V446.8H255.221V444.8ZM255.221 427.3V425.3H253.221V427.3H255.221ZM289.821 427.3V429.3H291.821V427.3H289.821ZM289.821 415.1H291.821V413.1H289.821V415.1ZM255.221 415.1H253.221V417.1H255.221V415.1ZM255.221 399.8V397.8H253.221V399.8H255.221ZM292.921 399.8V401.8H294.921V399.8H292.921ZM292.921 386.6H294.921V384.6H292.921V386.6ZM237.521 386.6V458H241.521V386.6H237.521ZM239.521 460H293.721V456H239.521V460ZM295.721 458V444.8H291.721V458H295.721ZM293.721 442.8H255.221V446.8H293.721V442.8ZM257.221 444.8V427.3H253.221V444.8H257.221ZM255.221 429.3H289.821V425.3H255.221V429.3ZM291.821 427.3V415.1H287.821V427.3H291.821ZM289.821 413.1H255.221V417.1H289.821V413.1ZM257.221 415.1V399.8H253.221V415.1H257.221ZM255.221 401.8H292.921V397.8H255.221V401.8ZM294.921 399.8V386.6H290.921V399.8H294.921ZM292.921 384.6H239.521V388.6H292.921V384.6ZM304.365 386.6V384.6H302.365V386.6H304.365ZM304.365 458H302.365V460H304.365V458ZM354.865 458V460H356.865V458H354.865ZM354.865 444.8H356.865V442.8H354.865V444.8ZM320.065 444.8H318.065V446.8H320.065V444.8ZM320.065 386.6H322.065V384.6H320.065V386.6ZM302.365 386.6V458H306.365V386.6H302.365ZM304.365 460H354.865V456H304.365V460ZM356.865 458V444.8H352.865V458H356.865ZM354.865 442.8H320.065V446.8H354.865V442.8ZM322.065 444.8V386.6H318.065V444.8H322.065ZM320.065 384.6H304.365V388.6H320.065V384.6ZM387.663 458V460H389.106L389.561 458.63L387.663 458ZM411.363 386.6L413.261 387.23L414.134 384.6H411.363V386.6ZM395.163 386.6V384.6H393.704L393.258 385.989L395.163 386.6ZM379.063 436.8V438.8H380.521L380.967 437.411L379.063 436.8ZM378.863 436.8L376.956 437.404L377.398 438.8H378.863V436.8ZM362.963 386.6L364.869 385.996L364.427 384.6H362.963V386.6ZM346.862 386.6V384.6H344.113L344.96 387.216L346.862 386.6ZM369.963 458L368.06 458.616L368.507 460H369.963V458ZM389.561 458.63L413.261 387.23L409.464 385.97L385.764 457.37L389.561 458.63ZM411.363 384.6H395.163V388.6H411.363V384.6ZM393.258 385.989L377.158 436.189L380.967 437.411L397.067 387.211L393.258 385.989ZM379.063 434.8H378.863V438.8H379.063V434.8ZM380.769 436.196L364.869 385.996L361.056 387.204L376.956 437.404L380.769 436.196ZM362.963 384.6H346.862V388.6H362.963V384.6ZM344.96 387.216L368.06 458.616L371.865 457.384L348.765 385.984L344.96 387.216ZM369.963 460H387.663V456H369.963V460ZM417.451 386.6V384.6H415.451V386.6H417.451ZM417.451 458H415.451V460H417.451V458ZM471.651 458V460H473.651V458H471.651ZM471.651 444.8H473.651V442.8H471.651V444.8ZM433.151 444.8H431.151V446.8H433.151V444.8ZM433.151 427.3V425.3H431.151V427.3H433.151ZM467.751 427.3V429.3H469.751V427.3H467.751ZM467.751 415.1H469.751V413.1H467.751V415.1ZM433.151 415.1H431.151V417.1H433.151V415.1ZM433.151 399.8V397.8H431.151V399.8H433.151ZM470.851 399.8V401.8H472.851V399.8H470.851ZM470.851 386.6H472.851V384.6H470.851V386.6ZM415.451 386.6V458H419.451V386.6H415.451ZM417.451 460H471.651V456H417.451V460ZM473.651 458V444.8H469.651V458H473.651ZM471.651 442.8H433.151V446.8H471.651V442.8ZM435.151 444.8V427.3H431.151V444.8H435.151ZM433.151 429.3H467.751V425.3H433.151V429.3ZM469.751 427.3V415.1H465.751V427.3H469.751ZM467.751 413.1H433.151V417.1H467.751V413.1ZM435.151 415.1V399.8H431.151V415.1H435.151ZM433.151 401.8H470.851V397.8H433.151V401.8ZM472.851 399.8V386.6H468.851V399.8H472.851ZM470.851 384.6H417.451V388.6H470.851V384.6ZM498.095 399.8H500.095V397.8H498.095V399.8ZM498.095 458H496.095V460H498.095V458ZM513.795 458V460H515.795V458H513.795ZM513.795 399.8V397.8H511.795V399.8H513.795ZM535.195 399.8V401.8H537.195V399.8H535.195ZM535.195 386.6H537.195V384.6H535.195V386.6ZM476.695 386.6V384.6H474.695V386.6H476.695ZM476.695 399.8H474.695V401.8H476.695V399.8ZM496.095 399.8V458H500.095V399.8H496.095ZM498.095 460H513.795V456H498.095V460ZM515.795 458V399.8H511.795V458H515.795ZM513.795 401.8H535.195V397.8H513.795V401.8ZM537.195 399.8V386.6H533.195V399.8H537.195ZM535.195 384.6H476.695V388.6H535.195V384.6ZM474.695 386.6V399.8H478.695V386.6H474.695ZM476.695 401.8H498.095V397.8H476.695V401.8ZM543.427 386.6V384.6H541.427V386.6H543.427ZM543.427 458H541.427V460H543.427V458ZM559.127 458V460H561.127V458H559.127ZM559.127 386.6H561.127V384.6H559.127V386.6ZM541.427 386.6V458H545.427V386.6H541.427ZM543.427 460H559.127V456H543.427V460ZM561.127 458V386.6H557.127V458H561.127ZM559.127 384.6H543.427V388.6H559.127V384.6ZM620.52 410.6L618.541 410.893L618.794 412.6H620.52V410.6ZM635.72 410.6V412.6H637.958L637.707 410.376L635.72 410.6ZM632.32 399.6L634.063 398.619L634.063 398.619L632.32 399.6ZM625.42 391.6L624.166 393.158L624.186 393.175L624.207 393.191L625.42 391.6ZM616.02 386.6L615.398 388.501L615.409 388.504L616.02 386.6ZM590.12 387.8L589.315 385.969L589.305 385.974L590.12 387.8ZM579.12 395.8L580.619 397.123L580.619 397.123L579.12 395.8ZM572.22 407.8L574.106 408.466L574.109 408.457L572.22 407.8ZM572.22 437.2L570.334 437.866L570.337 437.874L572.22 437.2ZM579.12 448.9L580.606 447.562L580.606 447.562L579.12 448.9ZM590.12 456.8L589.305 458.626L589.321 458.634L589.338 458.641L590.12 456.8ZM617.02 457.6L617.703 459.48L617.703 459.48L617.02 457.6ZM626.62 451.8L625.26 450.333L625.26 450.333L626.62 451.8ZM633.22 442.6L635.034 443.44L635.034 443.44L633.22 442.6ZM636.32 430.5L638.312 430.678L638.507 428.5H636.32V430.5ZM621.12 430.5V428.5H619.354L619.135 430.252L621.12 430.5ZM616.12 442.1L614.656 440.737L614.648 440.746L614.64 440.755L616.12 442.1ZM595.92 444.5L594.932 446.239L594.95 446.25L594.968 446.259L595.92 444.5ZM589.92 439L588.263 440.121L588.263 440.121L589.92 439ZM586.52 431.4L584.572 431.853L584.578 431.88L584.585 431.907L586.52 431.4ZM586.52 413.5L584.579 413.015L584.574 413.036L584.569 413.057L586.52 413.5ZM589.92 405.7L591.576 406.821L591.584 406.81L591.591 406.798L589.92 405.7ZM595.92 400.2L596.871 401.959L596.889 401.95L596.907 401.939L595.92 400.2ZM610.42 399.1L609.702 400.967L609.744 400.983L609.787 400.997L610.42 399.1ZM618.72 405.7L617.011 406.74L617.022 406.757L617.032 406.774L618.72 405.7ZM620.52 412.6H635.72V408.6H620.52V412.6ZM637.707 410.376C637.214 406.012 636.01 402.082 634.063 398.619L630.576 400.581C632.229 403.518 633.292 406.922 633.732 410.824L637.707 410.376ZM634.063 398.619C632.135 395.192 629.658 392.315 626.632 390.009L624.207 393.191C626.781 395.152 628.904 397.608 630.576 400.581L634.063 398.619ZM626.674 390.042C623.738 387.679 620.384 385.9 616.63 384.696L615.409 388.504C618.722 389.567 621.634 391.121 624.166 393.158L626.674 390.042ZM616.641 384.699C612.959 383.495 609.047 382.9 604.92 382.9V386.9C608.658 386.9 612.147 387.438 615.398 388.501L616.641 384.699ZM604.92 382.9C599.214 382.9 594.001 383.91 589.315 385.969L590.924 389.631C595.038 387.823 599.692 386.9 604.92 386.9V382.9ZM589.305 385.974C584.722 388.018 580.818 390.852 577.62 394.477L580.619 397.123C583.421 393.948 586.85 391.449 590.934 389.626L589.305 385.974ZM577.62 394.477C574.436 398.086 572.009 402.316 570.331 407.143L574.109 408.457C575.63 404.084 577.803 400.314 580.619 397.123L577.62 394.477ZM570.334 407.134C568.65 411.904 567.82 417.065 567.82 422.6H571.82C571.82 417.469 572.589 412.763 574.106 408.466L570.334 407.134ZM567.82 422.6C567.82 428.008 568.652 433.102 570.334 437.866L574.106 436.534C572.587 432.232 571.82 427.592 571.82 422.6H567.82ZM570.337 437.874C572.019 442.572 574.449 446.7 577.633 450.238L580.606 447.562C577.79 444.433 575.62 440.762 574.102 436.526L570.337 437.874ZM577.633 450.238C580.831 453.791 584.731 456.586 589.305 458.626L590.934 454.974C586.842 453.148 583.408 450.675 580.606 447.562L577.633 450.238ZM589.338 458.641C594.019 460.627 599.223 461.6 604.92 461.6V457.6C599.683 457.6 595.021 456.707 590.901 454.959L589.338 458.641ZM604.92 461.6C609.523 461.6 613.791 460.902 617.703 459.48L616.336 455.72C612.915 456.965 609.116 457.6 604.92 457.6V461.6ZM617.703 459.48C621.608 458.059 625.041 455.99 627.979 453.267L625.26 450.333C622.731 452.677 619.764 454.474 616.336 455.72L617.703 459.48ZM627.979 453.267C630.916 450.545 633.265 447.261 635.034 443.44L631.405 441.76C629.84 445.139 627.79 447.988 625.26 450.333L627.979 453.267ZM635.034 443.44C636.81 439.606 637.894 435.345 638.312 430.678L634.328 430.322C633.945 434.589 632.963 438.394 631.405 441.76L635.034 443.44ZM636.32 428.5H621.12V432.5H636.32V428.5ZM619.135 430.252C618.576 434.723 617.048 438.17 614.656 440.737L617.583 443.463C620.658 440.163 622.463 435.877 623.104 430.748L619.135 430.252ZM614.64 440.755C612.431 443.184 609.285 444.5 604.92 444.5V448.5C610.154 448.5 614.475 446.882 617.599 443.445L614.64 440.755ZM604.92 444.5C601.634 444.5 598.979 443.88 596.871 442.741L594.968 446.259C597.794 447.787 601.139 448.5 604.92 448.5V444.5ZM596.907 442.761C594.698 441.507 592.931 439.882 591.576 437.879L588.263 440.121C589.975 442.652 592.208 444.693 594.932 446.239L596.907 442.761ZM591.576 437.879C590.177 435.811 589.134 433.487 588.454 430.893L584.585 431.907C585.372 434.913 586.596 437.656 588.263 440.121L591.576 437.879ZM588.468 430.947C587.836 428.232 587.52 425.45 587.52 422.6H583.52C583.52 425.75 583.87 428.835 584.572 431.853L588.468 430.947ZM587.52 422.6C587.52 419.61 587.838 416.725 588.47 413.943L584.569 413.057C583.868 416.141 583.52 419.324 583.52 422.6H587.52ZM588.46 413.985C589.142 411.255 590.187 408.874 591.576 406.821L588.263 404.579C586.586 407.059 585.363 409.878 584.579 413.015L588.46 413.985ZM591.591 406.798C592.942 404.743 594.694 403.136 596.871 401.959L594.969 398.441C592.212 399.931 589.964 401.991 588.248 404.602L591.591 406.798ZM596.907 401.939C599.007 400.747 601.648 400.1 604.92 400.1V396.1C601.124 396.1 597.765 396.853 594.932 398.461L596.907 401.939ZM604.92 400.1C606.618 400.1 608.207 400.392 609.702 400.967L611.137 397.233C609.166 396.475 607.088 396.1 604.92 396.1V400.1ZM609.787 400.997C611.372 401.526 612.757 402.28 613.961 403.254L616.478 400.146C614.882 398.853 613.067 397.874 611.052 397.203L609.787 400.997ZM613.961 403.254C615.183 404.244 616.198 405.403 617.011 406.74L620.428 404.66C619.375 402.93 618.056 401.423 616.478 400.146L613.961 403.254ZM617.032 406.774C617.808 407.992 618.314 409.358 618.541 410.893L622.498 410.307C622.192 408.242 621.498 406.341 620.407 404.626L617.032 406.774ZM665.041 430.4L663.156 429.731L662.208 432.4H665.041V430.4ZM674.341 404.2V402.2H672.928L672.456 403.531L674.341 404.2ZM674.541 404.2L676.432 403.55L675.968 402.2H674.541V404.2ZM683.541 430.4V432.4H686.342L685.432 429.75L683.541 430.4ZM666.541 386.6V384.6H665.159L664.67 385.893L666.541 386.6ZM639.541 458L637.67 457.293L636.646 460H639.541V458ZM655.341 458V460H656.757L657.227 458.664L655.341 458ZM660.941 442.1V440.1H659.525L659.054 441.436L660.941 442.1ZM687.641 442.1L689.534 441.457L689.074 440.1H687.641V442.1ZM693.041 458L691.147 458.643L691.608 460H693.041V458ZM709.341 458V460H712.224L711.214 457.299L709.341 458ZM682.641 386.6L684.514 385.899L684.028 384.6H682.641V386.6ZM666.925 431.069L676.225 404.869L672.456 403.531L663.156 429.731L666.925 431.069ZM674.341 406.2H674.541V402.2H674.341V406.2ZM672.649 404.85L681.649 431.05L685.432 429.75L676.432 403.55L672.649 404.85ZM683.541 428.4H665.041V432.4H683.541V428.4ZM664.67 385.893L637.67 457.293L641.411 458.707L668.411 387.307L664.67 385.893ZM639.541 460H655.341V456H639.541V460ZM657.227 458.664L662.827 442.764L659.054 441.436L653.454 457.336L657.227 458.664ZM660.941 444.1H687.641V440.1H660.941V444.1ZM685.747 442.743L691.147 458.643L694.934 457.357L689.534 441.457L685.747 442.743ZM693.041 460H709.341V456H693.041V460ZM711.214 457.299L684.514 385.899L680.767 387.301L707.467 458.701L711.214 457.299ZM682.641 384.6H666.541V388.6H682.641V384.6Z" fill="#0000FF"/>
<path d="M99.9 572.6V570.6H97.9V572.6H99.9ZM99.9 644H97.9V646H99.9V644ZM115.6 644V646H117.6V644H115.6ZM115.6 572.6H117.6V570.6H115.6V572.6ZM97.9 572.6V644H101.9V572.6H97.9ZM99.9 646H115.6V642H99.9V646ZM117.6 644V572.6H113.6V644H117.6ZM115.6 570.6H99.9V574.6H115.6V570.6ZM140.092 620.3H142.092V618.3H140.092V620.3ZM124.892 620.3V618.3H122.922L122.892 620.27L124.892 620.3ZM127.292 631.7L125.518 632.624L125.518 632.624L127.292 631.7ZM133.992 639.6L132.804 641.209L132.813 641.216L132.823 641.222L133.992 639.6ZM143.792 644.1L144.31 642.168L144.298 642.165L144.286 642.162L143.792 644.1ZM168.092 643.9L167.511 641.986L167.502 641.989L168.092 643.9ZM177.392 639.2L178.652 640.754L178.656 640.75L177.392 639.2ZM183.092 631.9L181.27 631.076L181.27 631.076L183.092 631.9ZM182.392 613L180.708 614.079L180.725 614.105L180.742 614.129L182.392 613ZM176.392 606.8L177.491 605.129L177.491 605.129L176.392 606.8ZM169.292 603.5L168.693 605.408L168.725 605.418L168.757 605.427L169.292 603.5ZM163.792 602L163.3 603.939L163.35 603.951L163.4 603.961L163.792 602ZM152.892 599.2L152.374 601.132L152.385 601.135L152.892 599.2ZM146.392 597L145.529 598.804L145.544 598.811L145.559 598.818L146.392 597ZM143.292 594.6L141.589 595.648L141.589 595.648L143.292 594.6ZM143.492 587.4L141.828 586.291L141.828 586.291L143.492 587.4ZM145.992 584.9L144.932 583.204L144.907 583.22L144.883 583.236L145.992 584.9ZM158.592 583.6L158.184 585.558L158.192 585.56L158.2 585.561L158.592 583.6ZM162.992 585.3L161.924 586.991L161.924 586.991L162.992 585.3ZM165.992 588.6L164.221 589.528L164.238 589.56L164.256 589.592L165.992 588.6ZM167.392 593.9L165.396 594.025L165.513 595.9H167.392V593.9ZM182.592 593.9V595.9H184.592V593.9H182.592ZM180.192 583.4L178.42 584.327L178.432 584.351L178.446 584.375L180.192 583.4ZM173.892 576.2L172.745 577.838L172.745 577.838L173.892 576.2ZM164.692 572.2L164.198 574.138L164.22 574.144L164.242 574.149L164.692 572.2ZM144.392 572.2L143.869 570.27L143.869 570.27L144.392 572.2ZM135.792 576.2L134.634 574.57L134.634 574.57L135.792 576.2ZM129.592 583L127.866 581.99L127.862 581.996L127.858 582.003L129.592 583ZM129.092 600.9L127.314 601.815L127.329 601.845L127.346 601.876L129.092 600.9ZM133.992 606.6L132.775 608.187L132.775 608.187L133.992 606.6ZM140.792 610.4L140.058 612.26L140.079 612.269L140.101 612.277L140.792 610.4ZM148.592 612.8L149.135 610.875L149.106 610.867L149.077 610.86L148.592 612.8ZM156.292 614.8L156.753 612.854L156.753 612.854L156.292 614.8ZM163.092 616.9L163.835 615.043L163.835 615.043L163.092 616.9ZM167.892 619.9L166.478 621.314L166.497 621.333L166.517 621.352L167.892 619.9ZM168.392 629.1L169.936 630.371L169.954 630.35L169.971 630.328L168.392 629.1ZM164.892 631.8L164.032 629.994L164.032 629.994L164.892 631.8ZM160.392 633.2L160.64 635.185L160.681 635.179L160.721 635.173L160.392 633.2ZM149.892 632.8L149.36 634.728L149.391 634.737L149.423 634.744L149.892 632.8ZM144.792 630.5L143.58 632.091L143.622 632.123L143.666 632.152L144.792 630.5ZM141.392 626.4L143.167 625.477L143.167 625.477L141.392 626.4ZM140.092 618.3H124.892V622.3H140.092V618.3ZM122.892 620.27C122.822 624.929 123.668 629.071 125.518 632.624L129.066 630.776C127.583 627.929 126.829 624.471 126.892 620.33L122.892 620.27ZM125.518 632.624C127.32 636.084 129.75 638.955 132.804 641.209L135.18 637.991C132.634 636.112 130.597 633.716 129.066 630.776L125.518 632.624ZM132.823 641.222C135.907 643.446 139.406 645.047 143.299 646.038L144.286 642.162C140.845 641.286 137.811 639.887 135.162 637.978L132.823 641.222ZM143.275 646.032C147.18 647.078 151.187 647.6 155.292 647.6V643.6C151.53 643.6 147.871 643.122 144.31 642.168L143.275 646.032ZM155.292 647.6C160.308 647.6 164.782 647.017 168.683 645.811L167.502 641.989C164.069 643.05 160.01 643.6 155.292 643.6V647.6ZM168.673 645.814C172.599 644.622 175.944 642.949 178.652 640.754L176.133 637.646C173.907 639.451 171.052 640.911 167.511 641.986L168.673 645.814ZM178.656 640.75C181.414 638.5 183.512 635.824 184.914 632.724L181.27 631.076C180.139 633.576 178.437 635.766 176.128 637.65L178.656 640.75ZM184.914 632.724C186.306 629.649 186.992 626.333 186.992 622.8H182.992C182.992 625.801 182.412 628.551 181.27 631.076L184.914 632.724ZM186.992 622.8C186.992 618.518 186.064 614.824 184.043 611.871L180.742 614.129C182.187 616.242 182.992 619.082 182.992 622.8H186.992ZM184.076 611.921C182.274 609.11 180.082 606.832 177.491 605.129L175.294 608.471C177.369 609.835 179.177 611.69 180.708 614.079L184.076 611.921ZM177.491 605.129C175.005 603.495 172.45 602.301 169.827 601.573L168.757 605.427C170.935 606.032 173.113 607.038 175.294 608.471L177.491 605.129ZM169.892 601.592C167.535 600.851 165.622 600.326 164.184 600.039L163.4 603.961C164.629 604.207 166.383 604.682 168.693 605.408L169.892 601.592ZM164.284 600.061C159.82 598.929 156.192 597.997 153.399 597.265L152.385 601.135C155.192 601.87 158.831 602.805 163.3 603.939L164.284 600.061ZM153.41 597.268C150.729 596.549 148.682 595.849 147.225 595.182L145.559 598.818C147.303 599.617 149.589 600.385 152.374 601.132L153.41 597.268ZM147.255 595.196C145.861 594.529 145.233 593.938 144.996 593.552L141.589 595.648C142.418 596.995 143.857 598.005 145.529 598.804L147.255 595.196ZM144.996 593.552C144.716 593.098 144.492 592.364 144.492 591.2H140.492C140.492 592.836 140.802 594.369 141.589 595.648L144.996 593.552ZM144.492 591.2C144.492 589.953 144.762 589.101 145.156 588.509L141.828 586.291C140.889 587.699 140.492 589.38 140.492 591.2H144.492ZM145.156 588.509C145.676 587.729 146.321 587.084 147.102 586.564L144.883 583.236C143.663 584.049 142.641 585.071 141.828 586.291L145.156 588.509ZM147.052 586.596C147.914 586.057 148.86 585.677 149.904 585.457L149.08 581.543C147.591 581.856 146.204 582.409 144.932 583.204L147.052 586.596ZM149.904 585.457C151.038 585.218 152.167 585.1 153.292 585.1V581.1C151.884 581.1 150.479 581.248 149.08 581.543L149.904 585.457ZM153.292 585.1C155.113 585.1 156.74 585.257 158.184 585.558L159 581.642C157.244 581.276 155.338 581.1 153.292 581.1V585.1ZM158.2 585.561C159.659 585.853 160.89 586.338 161.924 586.991L164.06 583.609C162.561 582.662 160.859 582.014 158.984 581.639L158.2 585.561ZM161.924 586.991C162.877 587.593 163.641 588.422 164.221 589.528L167.764 587.672C166.877 585.978 165.641 584.607 164.06 583.609L161.924 586.991ZM164.256 589.592C164.863 590.655 165.276 592.102 165.396 594.025L169.388 593.775C169.242 591.432 168.721 589.345 167.729 587.608L164.256 589.592ZM167.392 595.9H182.592V591.9H167.392V595.9ZM184.592 593.9C184.592 589.512 183.743 585.658 181.939 582.425L178.446 584.375C179.842 586.876 180.592 590.021 180.592 593.9H184.592ZM181.965 582.473C180.285 579.261 177.973 576.615 175.039 574.562L172.745 577.838C175.145 579.518 177.032 581.672 178.42 584.327L181.965 582.473ZM175.039 574.562C172.143 572.534 168.835 571.104 165.142 570.251L164.242 574.149C167.482 574.896 170.308 576.132 172.745 577.838L175.039 574.562ZM165.186 570.262C161.615 569.352 157.882 568.9 153.992 568.9V572.9C157.57 572.9 160.97 573.315 164.198 574.138L165.186 570.262ZM153.992 568.9C150.609 568.9 147.234 569.358 143.869 570.27L144.915 574.13C147.951 573.308 150.975 572.9 153.992 572.9V568.9ZM143.869 570.27C140.457 571.194 137.372 572.624 134.634 574.57L136.951 577.83C139.279 576.176 141.928 574.94 144.915 574.13L143.869 570.27ZM134.634 574.57C131.865 576.537 129.606 579.017 127.866 581.99L131.318 584.01C132.778 581.517 134.653 579.463 136.951 577.83L134.634 574.57ZM127.858 582.003C126.12 585.027 125.292 588.551 125.292 592.5H129.292C129.292 589.116 129.998 586.307 131.326 583.997L127.858 582.003ZM125.292 592.5C125.292 596.008 125.937 599.137 127.314 601.815L130.871 599.985C129.848 597.996 129.292 595.525 129.292 592.5H125.292ZM127.346 601.876C128.742 604.373 130.553 606.483 132.775 608.187L135.209 605.013C133.432 603.65 131.976 601.961 130.838 599.924L127.346 601.876ZM132.775 608.187C134.934 609.842 137.366 611.198 140.058 612.26L141.527 608.54C139.152 607.602 137.05 606.424 135.209 605.013L132.775 608.187ZM140.101 612.277C142.703 613.235 145.372 614.056 148.107 614.74L149.077 610.86C146.479 610.21 143.948 609.431 141.484 608.523L140.101 612.277ZM148.049 614.725C150.675 615.466 153.269 616.139 155.831 616.746L156.753 612.854C154.248 612.261 151.709 611.601 149.135 610.875L148.049 614.725ZM155.831 616.746C158.288 617.328 160.458 618 162.349 618.757L163.835 615.043C161.727 614.2 159.363 613.472 156.753 612.854L155.831 616.746ZM162.349 618.757C164.163 619.482 165.514 620.35 166.478 621.314L169.306 618.486C167.871 617.05 166.021 615.918 163.835 615.043L162.349 618.757ZM166.517 621.352C167.339 622.131 167.792 623.15 167.792 624.6H171.792C171.792 622.183 170.978 620.069 169.268 618.448L166.517 621.352ZM167.792 624.6C167.792 626.04 167.426 627.085 166.813 627.872L169.971 630.328C171.225 628.715 171.792 626.76 171.792 624.6H167.792ZM166.848 627.829C166.112 628.723 165.183 629.446 164.032 629.994L165.752 633.606C167.401 632.82 168.806 631.743 169.936 630.371L166.848 627.829ZM164.032 629.994C162.808 630.577 161.488 630.99 160.063 631.227L160.721 635.173C162.496 634.877 164.176 634.356 165.752 633.606L164.032 629.994ZM160.144 631.215C158.614 631.407 157.198 631.5 155.892 631.5V635.5C157.386 635.5 158.97 635.393 160.64 635.185L160.144 631.215ZM155.892 631.5C153.977 631.5 152.135 631.284 150.361 630.856L149.423 634.744C151.516 635.249 153.674 635.5 155.892 635.5V631.5ZM150.424 630.872C148.676 630.39 147.182 629.709 145.919 628.848L143.666 632.152C145.336 633.291 147.242 634.144 149.36 634.728L150.424 630.872ZM146.004 628.909C144.854 628.033 143.907 626.9 143.167 625.477L139.618 627.323C140.611 629.233 141.93 630.834 143.58 632.091L146.004 628.909ZM143.167 625.477C142.484 624.164 142.092 622.466 142.092 620.3H138.092C138.092 622.934 138.567 625.303 139.618 627.323L143.167 625.477ZM222.166 572.6V570.6H220.166V572.6H222.166ZM222.166 644H220.166V646H222.166V644ZM276.366 644V646H278.366V644H276.366ZM276.366 630.8H278.366V628.8H276.366V630.8ZM237.866 630.8H235.866V632.8H237.866V630.8ZM237.866 613.3V611.3H235.866V613.3H237.866ZM272.466 613.3V615.3H274.466V613.3H272.466ZM272.466 601.1H274.466V599.1H272.466V601.1ZM237.866 601.1H235.866V603.1H237.866V601.1ZM237.866 585.8V583.8H235.866V585.8H237.866ZM275.566 585.8V587.8H277.566V585.8H275.566ZM275.566 572.6H277.566V570.6H275.566V572.6ZM220.166 572.6V644H224.166V572.6H220.166ZM222.166 646H276.366V642H222.166V646ZM278.366 644V630.8H274.366V644H278.366ZM276.366 628.8H237.866V632.8H276.366V628.8ZM239.866 630.8V613.3H235.866V630.8H239.866ZM237.866 615.3H272.466V611.3H237.866V615.3ZM274.466 613.3V601.1H270.466V613.3H274.466ZM272.466 599.1H237.866V603.1H272.466V599.1ZM239.866 601.1V585.8H235.866V601.1H239.866ZM237.866 587.8H275.566V583.8H237.866V587.8ZM277.566 585.8V572.6H273.566V585.8H277.566ZM275.566 570.6H222.166V574.6H275.566V570.6ZM304.509 606.6L306.174 607.708L306.918 606.591L306.166 605.479L304.509 606.6ZM279.609 644L277.945 642.892L275.875 646H279.609V644ZM297.209 644V646H298.3L298.891 645.083L297.209 644ZM313.109 619.3L314.8 618.232L313.125 615.58L311.428 618.217L313.109 619.3ZM328.709 644L327.018 645.068L327.607 646H328.709V644ZM347.409 644V646H351.149L349.073 642.89L347.409 644ZM322.509 606.7L320.849 605.585L320.102 606.697L320.846 607.81L322.509 606.7ZM345.409 572.6L347.07 573.715L349.162 570.6H345.409V572.6ZM328.209 572.6V570.6H327.111L326.522 571.527L328.209 572.6ZM313.709 595.4L312.005 596.447L313.68 599.174L315.397 596.473L313.709 595.4ZM299.709 572.6L301.414 571.553L300.828 570.6H299.709V572.6ZM281.509 572.6V570.6H277.742L279.853 573.721L281.509 572.6ZM302.845 605.492L277.945 642.892L281.274 645.108L306.174 607.708L302.845 605.492ZM279.609 646H297.209V642H279.609V646ZM298.891 645.083L314.791 620.383L311.428 618.217L295.528 642.917L298.891 645.083ZM311.418 620.368L327.018 645.068L330.4 642.932L314.8 618.232L311.418 620.368ZM328.709 646H347.409V642H328.709V646ZM349.073 642.89L324.173 605.59L320.846 607.81L345.746 645.11L349.073 642.89ZM324.17 607.815L347.07 573.715L343.749 571.485L320.849 605.585L324.17 607.815ZM345.409 570.6H328.209V574.6H345.409V570.6ZM326.522 571.527L312.022 594.327L315.397 596.473L329.897 573.673L326.522 571.527ZM315.414 594.353L301.414 571.553L298.005 573.647L312.005 596.447L315.414 594.353ZM299.709 570.6H281.509V574.6H299.709V570.6ZM279.853 573.721L302.853 607.721L306.166 605.479L283.166 571.479L279.853 573.721ZM369.409 606.2H367.409V608.2H369.409V606.2ZM369.409 584.8V582.8H367.409V584.8H369.409ZM386.809 585.2L386.493 587.175L386.493 587.175L386.809 585.2ZM391.209 586.8L390.141 588.491L390.173 588.512L390.207 588.531L391.209 586.8ZM394.209 590L392.437 590.928L392.454 590.96L392.472 590.992L394.209 590ZM394.209 601L392.472 600.008L392.454 600.04L392.437 600.072L394.209 601ZM391.209 604.3L392.211 606.031L392.244 606.012L392.277 605.991L391.209 604.3ZM386.809 605.8L386.493 603.825L386.493 603.825L386.809 605.8ZM353.709 572.6V570.6H351.709V572.6H353.709ZM353.709 644H351.709V646H353.709V644ZM369.409 644V646H371.409V644H369.409ZM369.409 618.4V616.4H367.409V618.4H369.409ZM397.309 616.5L398.058 618.354L398.075 618.347L398.092 618.34L397.309 616.5ZM404.909 611.3L403.45 609.932L403.438 609.944L403.427 609.957L404.909 611.3ZM409.209 604L407.311 603.368L407.307 603.381L407.302 603.396L409.209 604ZM409.209 587L407.302 587.604L407.309 587.625L407.316 587.646L409.209 587ZM404.909 579.7L403.427 581.043L403.438 581.056L403.45 581.068L404.909 579.7ZM397.309 574.6L396.525 576.44L396.542 576.447L396.559 576.454L397.309 574.6ZM371.409 606.2V584.8H367.409V606.2H371.409ZM369.409 586.8H381.609V582.8H369.409V586.8ZM381.609 586.8C383.31 586.8 384.937 586.926 386.493 587.175L387.125 583.225C385.347 582.941 383.507 582.8 381.609 582.8V586.8ZM386.493 587.175C387.926 587.404 389.13 587.853 390.141 588.491L392.277 585.109C390.754 584.147 389.025 583.529 387.125 583.225L386.493 587.175ZM390.207 588.531C391.12 589.06 391.864 589.835 392.437 590.928L395.98 589.072C395.086 587.365 393.831 586.007 392.211 585.069L390.207 588.531ZM392.472 590.992C393.043 591.992 393.409 593.448 393.409 595.5H397.409C397.409 593.019 396.974 590.808 395.945 589.008L392.472 590.992ZM393.409 595.5C393.409 597.552 393.043 599.008 392.472 600.008L395.945 601.992C396.974 600.192 397.409 597.981 397.409 595.5H393.409ZM392.437 600.072C391.858 601.178 391.093 602.007 390.141 602.609L392.277 605.991C393.857 604.993 395.093 603.622 395.98 601.928L392.437 600.072ZM390.207 602.569C389.182 603.163 387.954 603.591 386.493 603.825L387.125 607.775C388.996 607.475 390.702 606.904 392.211 606.031L390.207 602.569ZM386.493 603.825C384.937 604.074 383.31 604.2 381.609 604.2V608.2C383.507 608.2 385.347 608.059 387.125 607.775L386.493 603.825ZM381.609 604.2H369.409V608.2H381.609V604.2ZM351.709 572.6V644H355.709V572.6H351.709ZM353.709 646H369.409V642H353.709V646ZM371.409 644V618.4H367.409V644H371.409ZM369.409 620.4H385.909V616.4H369.409V620.4ZM385.909 620.4C390.554 620.4 394.624 619.743 398.058 618.354L396.559 614.646C393.727 615.791 390.197 616.4 385.909 616.4V620.4ZM398.092 618.34C401.443 616.914 404.231 615.026 406.391 612.643L403.427 609.957C401.72 611.84 399.441 613.419 396.525 614.66L398.092 618.34ZM406.368 612.668C408.568 610.321 410.156 607.628 411.115 604.604L407.302 603.396C406.528 605.838 405.249 608.012 403.45 609.932L406.368 612.668ZM411.106 604.632C412.105 601.635 412.609 598.588 412.609 595.5H408.609C408.609 598.145 408.179 600.765 407.311 603.368L411.106 604.632ZM412.609 595.5C412.609 592.35 412.107 589.298 411.101 586.354L407.316 587.646C408.177 590.168 408.609 592.783 408.609 595.5H412.609ZM411.115 586.396C410.156 583.372 408.568 580.679 406.368 578.332L403.45 581.068C405.249 582.988 406.528 585.162 407.302 587.604L411.115 586.396ZM406.391 578.357C404.222 575.965 401.423 574.106 398.058 572.746L396.559 576.454C399.461 577.627 401.728 579.169 403.427 581.043L406.391 578.357ZM398.092 572.76C394.647 571.294 390.565 570.6 385.909 570.6V574.6C390.186 574.6 393.704 575.24 396.525 576.44L398.092 572.76ZM385.909 570.6H353.709V574.6H385.909V570.6ZM420.408 572.6V570.6H418.408V572.6H420.408ZM420.408 644H418.408V646H420.408V644ZM474.608 644V646H476.608V644H474.608ZM474.608 630.8H476.608V628.8H474.608V630.8ZM436.108 630.8H434.108V632.8H436.108V630.8ZM436.108 613.3V611.3H434.108V613.3H436.108ZM470.708 613.3V615.3H472.708V613.3H470.708ZM470.708 601.1H472.708V599.1H470.708V601.1ZM436.108 601.1H434.108V603.1H436.108V601.1ZM436.108 585.8V583.8H434.108V585.8H436.108ZM473.808 585.8V587.8H475.808V585.8H473.808ZM473.808 572.6H475.808V570.6H473.808V572.6ZM418.408 572.6V644H422.408V572.6H418.408ZM420.408 646H474.608V642H420.408V646ZM476.608 644V630.8H472.608V644H476.608ZM474.608 628.8H436.108V632.8H474.608V628.8ZM438.108 630.8V613.3H434.108V630.8H438.108ZM436.108 615.3H470.708V611.3H436.108V615.3ZM472.708 613.3V601.1H468.708V613.3H472.708ZM470.708 599.1H436.108V603.1H470.708V599.1ZM438.108 601.1V585.8H434.108V601.1H438.108ZM436.108 587.8H473.808V583.8H436.108V587.8ZM475.808 585.8V572.6H471.808V585.8H475.808ZM473.808 570.6H420.408V574.6H473.808V570.6ZM485.252 572.6V570.6H483.252V572.6H485.252ZM485.252 644H483.252V646H485.252V644ZM499.952 644V646H501.952V644H499.952ZM499.952 596.2V594.2H497.952V596.2H499.952ZM500.152 596.2L501.85 595.144L501.264 594.2H500.152V596.2ZM529.852 644L528.153 645.056L528.74 646H529.852V644ZM545.552 644V646H547.552V644H545.552ZM545.552 572.6H547.552V570.6H545.552V572.6ZM530.852 572.6V570.6H528.852V572.6H530.852ZM530.852 620.5V622.5H532.852V620.5H530.852ZM530.652 620.5L528.953 621.556L529.54 622.5H530.652V620.5ZM500.852 572.6L502.55 571.544L501.963 570.6H500.852V572.6ZM483.252 572.6V644H487.252V572.6H483.252ZM485.252 646H499.952V642H485.252V646ZM501.952 644V596.2H497.952V644H501.952ZM499.952 598.2H500.152V594.2H499.952V598.2ZM498.453 597.256L528.153 645.056L531.55 642.944L501.85 595.144L498.453 597.256ZM529.852 646H545.552V642H529.852V646ZM547.552 644V572.6H543.552V644H547.552ZM545.552 570.6H530.852V574.6H545.552V570.6ZM528.852 572.6V620.5H532.852V572.6H528.852ZM530.852 618.5H530.652V622.5H530.852V618.5ZM532.35 619.444L502.55 571.544L499.153 573.656L528.953 621.556L532.35 619.444ZM500.852 570.6H485.252V574.6H500.852V570.6ZM570.073 620.3H572.073V618.3H570.073V620.3ZM554.873 620.3V618.3H552.903L552.873 620.27L554.873 620.3ZM557.273 631.7L555.499 632.624L555.499 632.624L557.273 631.7ZM563.973 639.6L562.785 641.209L562.794 641.216L562.803 641.222L563.973 639.6ZM573.773 644.1L574.29 642.168L574.278 642.165L574.266 642.162L573.773 644.1ZM598.073 643.9L597.492 641.986L597.482 641.989L598.073 643.9ZM607.373 639.2L608.632 640.754L608.637 640.75L607.373 639.2ZM613.073 631.9L611.25 631.076L611.25 631.076L613.073 631.9ZM612.373 613L610.689 614.079L610.705 614.105L610.722 614.129L612.373 613ZM606.373 606.8L607.471 605.129L607.471 605.129L606.373 606.8ZM599.273 603.5L598.673 605.408L598.705 605.418L598.737 605.427L599.273 603.5ZM593.773 602L593.281 603.939L593.33 603.951L593.38 603.961L593.773 602ZM582.873 599.2L582.354 601.132L582.366 601.135L582.873 599.2ZM576.373 597L575.51 598.804L575.524 598.811L575.539 598.818L576.373 597ZM573.273 594.6L571.569 595.648L571.569 595.648L573.273 594.6ZM573.473 587.4L571.809 586.291L571.809 586.291L573.473 587.4ZM575.973 584.9L574.913 583.204L574.888 583.22L574.863 583.236L575.973 584.9ZM588.573 583.6L588.165 585.558L588.173 585.56L588.18 585.561L588.573 583.6ZM592.973 585.3L591.905 586.991L591.905 586.991L592.973 585.3ZM595.973 588.6L594.201 589.528L594.218 589.56L594.236 589.592L595.973 588.6ZM597.373 593.9L595.377 594.025L595.494 595.9H597.373V593.9ZM612.573 593.9V595.9H614.573V593.9H612.573ZM610.173 583.4L608.4 584.327L608.413 584.351L608.426 584.375L610.173 583.4ZM603.873 576.2L602.726 577.838L602.726 577.838L603.873 576.2ZM594.673 572.2L594.179 574.138L594.201 574.144L594.223 574.149L594.673 572.2ZM574.373 572.2L573.85 570.27L573.85 570.27L574.373 572.2ZM565.773 576.2L564.614 574.57L564.614 574.57L565.773 576.2ZM559.573 583L557.847 581.99L557.843 581.996L557.839 582.003L559.573 583ZM559.073 600.9L557.294 601.815L557.31 601.845L557.327 601.876L559.073 600.9ZM563.973 606.6L562.756 608.187L562.756 608.187L563.973 606.6ZM570.773 610.4L570.038 612.26L570.06 612.269L570.081 612.277L570.773 610.4ZM578.573 612.8L579.116 610.875L579.087 610.867L579.058 610.86L578.573 612.8ZM586.273 614.8L586.734 612.854L586.734 612.854L586.273 614.8ZM593.073 616.9L593.815 615.043L593.815 615.043L593.073 616.9ZM597.873 619.9L596.458 621.314L596.478 621.333L596.497 621.352L597.873 619.9ZM598.373 629.1L599.917 630.371L599.934 630.35L599.951 630.328L598.373 629.1ZM594.873 631.8L594.013 629.994L594.013 629.994L594.873 631.8ZM590.373 633.2L590.621 635.185L590.661 635.179L590.701 635.173L590.373 633.2ZM579.873 632.8L579.341 634.728L579.372 634.737L579.403 634.744L579.873 632.8ZM574.773 630.5L573.561 632.091L573.602 632.123L573.646 632.152L574.773 630.5ZM571.373 626.4L573.147 625.477L573.147 625.477L571.373 626.4ZM570.073 618.3H554.873V622.3H570.073V618.3ZM552.873 620.27C552.802 624.929 553.649 629.071 555.499 632.624L559.046 630.776C557.563 627.929 556.81 624.471 556.872 620.33L552.873 620.27ZM555.499 632.624C557.301 636.084 559.731 638.955 562.785 641.209L565.16 637.991C562.614 636.112 560.578 633.716 559.046 630.776L555.499 632.624ZM562.803 641.222C565.887 643.446 569.387 645.047 573.279 646.038L574.266 642.162C570.825 641.286 567.791 639.887 565.142 637.978L562.803 641.222ZM573.255 646.032C577.16 647.078 581.168 647.6 585.273 647.6V643.6C581.511 643.6 577.852 643.122 574.29 642.168L573.255 646.032ZM585.273 647.6C590.289 647.6 594.762 647.017 598.663 645.811L597.482 641.989C594.05 643.05 589.99 643.6 585.273 643.6V647.6ZM598.654 645.814C602.579 644.622 605.925 642.949 608.632 640.754L606.113 637.646C603.887 639.451 601.033 640.911 597.492 641.986L598.654 645.814ZM608.637 640.75C611.394 638.5 613.493 635.824 614.895 632.724L611.25 631.076C610.119 633.576 608.418 635.766 606.108 637.65L608.637 640.75ZM614.895 632.724C616.286 629.649 616.973 626.333 616.973 622.8H612.973C612.973 625.801 612.393 628.551 611.25 631.076L614.895 632.724ZM616.973 622.8C616.973 618.518 616.044 614.824 614.023 611.871L610.722 614.129C612.168 616.242 612.973 619.082 612.973 622.8H616.973ZM614.056 611.921C612.254 609.11 610.063 606.832 607.471 605.129L605.274 608.471C607.349 609.835 609.157 611.69 610.689 614.079L614.056 611.921ZM607.471 605.129C604.985 603.495 602.43 602.301 599.808 601.573L598.737 605.427C600.915 606.032 603.094 607.038 605.274 608.471L607.471 605.129ZM599.872 601.592C597.515 600.851 595.603 600.326 594.165 600.039L593.38 603.961C594.609 604.207 596.363 604.682 598.673 605.408L599.872 601.592ZM594.265 600.061C589.8 598.929 586.172 597.997 583.379 597.265L582.366 601.135C585.173 601.87 588.812 602.805 593.281 603.939L594.265 600.061ZM583.391 597.268C580.709 596.549 578.662 595.849 577.206 595.182L575.539 598.818C577.283 599.617 579.57 600.385 582.354 601.132L583.391 597.268ZM577.236 595.196C575.841 594.529 575.214 593.938 574.976 593.552L571.569 595.648C572.398 596.995 573.838 598.005 575.51 598.804L577.236 595.196ZM574.976 593.552C574.696 593.098 574.473 592.364 574.473 591.2H570.473C570.473 592.836 570.782 594.369 571.569 595.648L574.976 593.552ZM574.473 591.2C574.473 589.953 574.742 589.101 575.137 588.509L571.809 586.291C570.87 587.699 570.473 589.38 570.473 591.2H574.473ZM575.137 588.509C575.657 587.729 576.302 587.084 577.082 586.564L574.863 583.236C573.644 584.049 572.622 585.071 571.809 586.291L575.137 588.509ZM577.033 586.596C577.895 586.057 578.841 585.677 579.885 585.457L579.061 581.543C577.571 581.856 576.184 582.409 574.913 583.204L577.033 586.596ZM579.885 585.457C581.019 585.218 582.147 585.1 583.273 585.1V581.1C581.865 581.1 580.46 581.248 579.061 581.543L579.885 585.457ZM583.273 585.1C585.093 585.1 586.721 585.257 588.165 585.558L588.981 581.642C587.225 581.276 585.319 581.1 583.273 581.1V585.1ZM588.18 585.561C589.639 585.853 590.871 586.338 591.905 586.991L594.041 583.609C592.541 582.662 590.839 582.014 588.965 581.639L588.18 585.561ZM591.905 586.991C592.857 587.593 593.622 588.422 594.201 589.528L597.744 587.672C596.857 585.978 595.621 584.607 594.041 583.609L591.905 586.991ZM594.236 589.592C594.843 590.655 595.256 592.102 595.377 594.025L599.369 593.775C599.222 591.432 598.702 589.345 597.709 587.608L594.236 589.592ZM597.373 595.9H612.573V591.9H597.373V595.9ZM614.573 593.9C614.573 589.512 613.723 585.658 611.919 582.425L608.426 584.375C609.822 586.876 610.573 590.021 610.573 593.9H614.573ZM611.945 582.473C610.266 579.261 607.953 576.615 605.02 574.562L602.726 577.838C605.125 579.518 607.013 581.672 608.4 584.327L611.945 582.473ZM605.02 574.562C602.124 572.534 598.816 571.104 595.122 570.251L594.223 574.149C597.463 574.896 600.288 576.132 602.726 577.838L605.02 574.562ZM595.167 570.262C591.595 569.352 587.862 568.9 583.973 568.9V572.9C587.55 572.9 590.95 573.315 594.179 574.138L595.167 570.262ZM583.973 568.9C580.59 568.9 577.214 569.358 573.85 570.27L574.895 574.13C577.931 573.308 580.956 572.9 583.973 572.9V568.9ZM573.85 570.27C570.437 571.194 567.353 572.624 564.614 574.57L566.931 577.83C569.259 576.176 571.908 574.94 574.895 574.13L573.85 570.27ZM564.614 574.57C561.845 576.537 559.587 579.017 557.847 581.99L561.299 584.01C562.758 581.517 564.633 579.463 566.931 577.83L564.614 574.57ZM557.839 582.003C556.1 585.027 555.273 588.551 555.273 592.5H559.273C559.273 589.116 559.978 586.307 561.306 583.997L557.839 582.003ZM555.273 592.5C555.273 596.008 555.917 599.137 557.294 601.815L560.851 599.985C559.828 597.996 559.273 595.525 559.273 592.5H555.273ZM557.327 601.876C558.722 604.373 560.533 606.483 562.756 608.187L565.19 605.013C563.412 603.65 561.956 601.961 560.819 599.924L557.327 601.876ZM562.756 608.187C564.915 609.842 567.346 611.198 570.038 612.26L571.507 608.54C569.133 607.602 567.031 606.424 565.19 605.013L562.756 608.187ZM570.081 612.277C572.683 613.235 575.352 614.056 578.088 614.74L579.058 610.86C576.46 610.21 573.929 609.431 571.464 608.523L570.081 612.277ZM578.03 614.725C580.656 615.466 583.25 616.139 585.812 616.746L586.734 612.854C584.229 612.261 581.689 611.601 579.116 610.875L578.03 614.725ZM585.812 616.746C588.268 617.328 590.438 618 592.33 618.757L593.815 615.043C591.707 614.2 589.344 613.472 586.734 612.854L585.812 616.746ZM592.33 618.757C594.144 619.482 595.494 620.35 596.458 621.314L599.287 618.486C597.851 617.05 596.002 615.918 593.815 615.043L592.33 618.757ZM596.497 621.352C597.32 622.131 597.773 623.15 597.773 624.6H601.773C601.773 622.183 600.959 620.069 599.248 618.448L596.497 621.352ZM597.773 624.6C597.773 626.04 597.406 627.085 596.794 627.872L599.951 630.328C601.206 628.715 601.773 626.76 601.773 624.6H597.773ZM596.829 627.829C596.092 628.723 595.164 629.446 594.013 629.994L595.733 633.606C597.382 632.82 598.787 631.743 599.917 630.371L596.829 627.829ZM594.013 629.994C592.789 630.577 591.468 630.99 590.044 631.227L590.701 635.173C592.477 634.877 594.157 634.356 595.733 633.606L594.013 629.994ZM590.125 631.215C588.595 631.407 587.178 631.5 585.873 631.5V635.5C587.367 635.5 588.95 635.393 590.621 635.185L590.125 631.215ZM585.873 631.5C583.958 631.5 582.116 631.284 580.342 630.856L579.403 634.744C581.496 635.249 583.654 635.5 585.873 635.5V631.5ZM580.405 630.872C578.656 630.39 577.162 629.709 575.899 628.848L573.646 632.152C575.316 633.291 577.223 634.144 579.341 634.728L580.405 630.872ZM575.985 628.909C574.835 628.033 573.887 626.9 573.147 625.477L569.598 627.323C570.591 629.233 571.911 630.834 573.561 632.091L575.985 628.909ZM573.147 625.477C572.464 624.164 572.073 622.466 572.073 620.3H568.073C568.073 622.934 568.548 625.303 569.598 627.323L573.147 625.477ZM624.314 572.6V570.6H622.314V572.6H624.314ZM624.314 644H622.314V646H624.314V644ZM640.014 644V646H642.014V644H640.014ZM640.014 572.6H642.014V570.6H640.014V572.6ZM622.314 572.6V644H626.314V572.6H622.314ZM624.314 646H640.014V642H624.314V646ZM642.014 644V572.6H638.014V644H642.014ZM640.014 570.6H624.314V574.6H640.014V570.6ZM687.006 644V646H688.45L688.904 644.63L687.006 644ZM710.706 572.6L712.604 573.23L713.477 570.6H710.706V572.6ZM694.506 572.6V570.6H693.047L692.602 571.989L694.506 572.6ZM678.406 622.8V624.8H679.865L680.311 623.411L678.406 622.8ZM678.206 622.8L676.3 623.404L676.742 624.8H678.206V622.8ZM662.306 572.6L664.213 571.996L663.771 570.6H662.306V572.6ZM646.206 572.6V570.6H643.457L644.303 573.216L646.206 572.6ZM669.306 644L667.403 644.616L667.851 646H669.306V644ZM688.904 644.63L712.604 573.23L708.808 571.97L685.108 643.37L688.904 644.63ZM710.706 570.6H694.506V574.6H710.706V570.6ZM692.602 571.989L676.502 622.189L680.311 623.411L696.411 573.211L692.602 571.989ZM678.406 620.8H678.206V624.8H678.406V620.8ZM680.113 622.196L664.213 571.996L660.4 573.204L676.3 623.404L680.113 622.196ZM662.306 570.6H646.206V574.6H662.306V570.6ZM644.303 573.216L667.403 644.616L671.209 643.384L648.109 571.984L644.303 573.216ZM669.306 646H687.006V642H669.306V646ZM716.795 572.6V570.6H714.795V572.6H716.795ZM716.795 644H714.795V646H716.795V644ZM770.995 644V646H772.995V644H770.995ZM770.995 630.8H772.995V628.8H770.995V630.8ZM732.495 630.8H730.495V632.8H732.495V630.8ZM732.495 613.3V611.3H730.495V613.3H732.495ZM767.095 613.3V615.3H769.095V613.3H767.095ZM767.095 601.1H769.095V599.1H767.095V601.1ZM732.495 601.1H730.495V603.1H732.495V601.1ZM732.495 585.8V583.8H730.495V585.8H732.495ZM770.195 585.8V587.8H772.195V585.8H770.195ZM770.195 572.6H772.195V570.6H770.195V572.6ZM714.795 572.6V644H718.795V572.6H714.795ZM716.795 646H770.995V642H716.795V646ZM772.995 644V630.8H768.995V644H772.995ZM770.995 628.8H732.495V632.8H770.995V628.8ZM734.495 630.8V613.3H730.495V630.8H734.495ZM732.495 615.3H767.095V611.3H732.495V615.3ZM769.095 613.3V601.1H765.095V613.3H769.095ZM767.095 599.1H732.495V603.1H767.095V599.1ZM734.495 601.1V585.8H730.495V601.1H734.495ZM732.495 587.8H770.195V583.8H732.495V587.8ZM772.195 585.8V572.6H768.195V585.8H772.195ZM770.195 570.6H716.795V574.6H770.195V570.6Z" fill="#0000FF"/>
<defs>
<radialGradient id="paint0_angular_101_10" cx="0" cy="0" r="1" gradientUnits="userSpaceOnUse" gradientTransform="translate(434 500) scale(295)">
<stop stop-color="#0000FF"/>
<stop offset="1" stop-color="#D9D9D9" stop-opacity="0"/>
</radialGradient>
</defs>
</svg>
